{"title":"Escape from LA(1996)MPEG-4[DaScubaDude]","uid":14306722,"size":1008016448,"categoryP":"video","categoryS":"movies","magnet":"?xt=urn:btih:f95c5f61baee486554fa481b2d07979106e032e7&amp;dn=Escape+from+LA%281996%29MPEG-4%5BDaScubaDude%5D&amp;tr=udp%3A%2F%2Ftracker.leechers-paradise.org%3A6969&amp;tr=udp%3A%2F%2Fzer0day.ch%3A1337&amp;tr=udp%3A%2F%2Fopen.demonii.com%3A1337&amp;tr=udp%3A%2F%2Ftracker.coppersurfer.tk%3A6969&amp;tr=udp%3A%2F%2Fexodus.desync.com%3A6969","seeders":0,"leechers":1,"uploader":"dascuba","files":1,"time":1460513044,"description":"Escape from L.A. (1996)\r\nR | 1h 41min | Action, Adventure, Sci-Fi | 9 August 1996 (USA)\r\nSnake Plissken is once again called in by the United States government to recover a potential doomsday device from Los Angeles, now an autonomous island where undesirables are deported.\r\nDirector: John Carpenter\r\nWriters: John Carpenter (characters), Nick Castle (characters) |\r\nStars: Kurt Russell, Steve Buscemi, Stacy Keach\r\n\r\nGeneral\r\nComplete name                            : Escape from LAESCAPE_Title1.mp4\r\nFormat                                   : MPEG-4\r\nFormat profile                           : Base Media\r\nCodec ID                                 : isom\r\nFile size                                : 961 MiB\r\nDuration                                 : 1h 40mn\r\nOverall bit rate                         : 1 336 Kbps\r\nMovie name                               : ESCAPE\r\nGenre                                    : Action\r\nWriting application                      : Lavf54.6.100\r\n\r\nVideo\r\nID                                       : 1\r\nFormat                                   : AVC\r\nFormat/Info                              : Advanced Video Codec\r\nFormat profile                           :   \r\nFormat settings, CABAC                   : No\r\nFormat settings, ReFrames                : 6 frames\r\nCodec ID                                 : avc1\r\nCodec ID/Info                            : Advanced Video Coding\r\nDuration                                 : 1h 40mn\r\nBit rate                                 : 1 201 Kbps\r\nWidth                                    : 720 pixels\r\nHeight                                   : 540 pixels\r\nDisplay aspect ratio                     : 4:3\r\nFrame rate mode                          : Constant\r\nFrame rate                               : 29.970 fps\r\nColor space                              : YUV\r\nChroma subsampling                       : 4:2:0\r\nBit depth                                : 8 bits\r\nScan type                                : Progressive\r\nBits/(Pixel*Frame)                       : 0.103\r\nStream size                              : 864 MiB (90%)\r\n\r\nAudio\r\nID                                       : 2\r\nFormat                                   : AAC\r\nFormat/Info                              : Advanced Audio Codec\r\nFormat profile                           : LC\r\nCodec ID                                 : 40\r\nDuration                                 : 1h 40mn\r\nBit rate mode                            : Constant\r\nBit rate                                 : 128 Kbps\r\nChannel(s)                               : 2 channels\r\nChannel positions                        : Front: L R\r\nSampling rate                            : 44.1 KHz\r\nCompression mode                         : Lossy\r\nStream size                              : 92.1 MiB (10%)","torrent":{"xt":"urn:btih:f95c5f61baee486554fa481b2d07979106e032e7","amp;dn":"Escape+from+LA%281996%29MPEG-4%5BDaScubaDude%5D","amp;tr":["udp%3A%2F%2Ftracker.leechers-paradise.org%3A6969","udp%3A%2F%2Fzer0day.ch%3A1337","udp%3A%2F%2Fopen.demonii.com%3A1337","udp%3A%2F%2Ftracker.coppersurfer.tk%3A6969","udp%3A%2F%2Fexodus.desync.com%3A6969"],"infoHash":"f95c5f61baee486554fa481b2d07979106e032e7","infoHashBuffer":{"type":"Buffer","data":[249,92,95,97,186,238,72,101,84,250,72,27,45,7,151,145,6,224,50,231]},"announce":[],"urlList":[]}}